<svg width="40" height="40" viewBox="0 0 40 40" fill="none" xmlns="http://www.w3.org/2000/svg">
<path d="M23.75 16.875H28.75" stroke="white" stroke-width="3" stroke-linecap="round" stroke-linejoin="round"/>
<path d="M11.25 16.875H16.25" stroke="white" stroke-width="3" stroke-linecap="round" stroke-linejoin="round"/>
<path d="M13.75 14.375V19.375" stroke="white" stroke-width="3" stroke-linecap="round" stroke-linejoin="round"/>
<path d="M26.875 8.70312L13.125 8.75C11.2152 8.75363 9.36753 9.42859 7.90509 10.6568C6.44265 11.885 5.45858 13.5883 5.12501 15.4687V15.4687L2.56251 28.6094C2.39798 29.527 2.53088 30.4732 2.94183 31.31C3.35279 32.1469 4.02031 32.8305 4.84707 33.2613C5.67383 33.6922 6.6166 33.8476 7.53791 33.705C8.45922 33.5625 9.3109 33.1293 9.96876 32.4688V32.4688L16.7188 25L26.875 24.9531C29.0299 24.9531 31.0965 24.0971 32.6203 22.5734C34.144 21.0496 35 18.983 35 16.8281C35 14.6732 34.144 12.6066 32.6203 11.0829C31.0965 9.55915 29.0299 8.70313 26.875 8.70312V8.70312Z" stroke="white" stroke-width="3" stroke-linecap="round" stroke-linejoin="round"/>
<path d="M34.875 15.4219L37.4375 28.6094C37.602 29.527 37.4691 30.4732 37.0582 31.31C36.6472 32.1469 35.9797 32.8305 35.1529 33.2613C34.3262 33.6922 33.3834 33.8476 32.4621 33.705C31.5408 33.5625 30.6891 33.1293 30.0313 32.4688V32.4688L23.2812 24.9688" stroke="white" stroke-width="3" stroke-linecap="round" stroke-linejoin="round"/>
</svg>
